<?xml version="1.0" encoding="UTF-8" standalone="no"?><svg xmlns="http://www.w3.org/2000/svg" xmlns:xlink="http://www.w3.org/1999/xlink" contentScriptType="application/ecmascript" contentStyleType="text/css" height="230px" preserveAspectRatio="none" style="width:319px;height:230px;" version="1.1" viewBox="0 0 319 230" width="319px" zoomAndPan="magnify"><defs><filter height="300%" id="f6j8ha1669w96" width="300%" x="-1" y="-1"><feGaussianBlur result="blurOut" stdDeviation="2.0"/><feColorMatrix in="blurOut" result="blurOut2" type="matrix" values="0 0 0 0 0 0 0 0 0 0 0 0 0 0 0 0 0 0 .4 0"/><feOffset dx="4.0" dy="4.0" in="blurOut2" result="blurOut3"/><feBlend in="SourceGraphic" in2="blurOut3" mode="normal"/></filter></defs><g><!--entity Actor--><ellipse cx="22.5" cy="18" fill="#FEFECE" filter="url(#f6j8ha1669w96)" rx="8" ry="8" style="stroke: #A80036; stroke-width: 2.0;"/><path d="M22.5,26 L22.5,53 M9.5,34 L35.5,34 M22.5,53 L9.5,68 M22.5,53 L35.5,68 " fill="none" filter="url(#f6j8ha1669w96)" style="stroke: #A80036; stroke-width: 2.0;"/><text fill="#000000" font-family="sans-serif" font-size="14" lengthAdjust="spacingAndGlyphs" textLength="33" x="6" y="89.5332">Actor</text><!--class Presentador--><rect fill="#FEFECE" filter="url(#f6j8ha1669w96)" height="48" id="Presentador" style="stroke: #A80036; stroke-width: 1.5;" width="100" x="208.5" y="26.5"/><ellipse cx="223.5" cy="42.5" fill="#ADD1B2" rx="11" ry="11" style="stroke: #A80036; stroke-width: 1.0;"/><path d="M226.2656,38.375 Q226.4219,38.1563 226.6094,38.0469 Q226.7969,37.9375 227.0156,37.9375 Q227.3906,37.9375 227.625,38.1953 Q227.8594,38.4531 227.8594,39.0625 L227.8594,40.5156 Q227.8594,41.125 227.625,41.3906 Q227.3906,41.6563 227.0156,41.6563 Q226.6719,41.6563 226.4688,41.4531 Q226.2656,41.2656 226.1563,40.75 Q226.1094,40.3906 225.9219,40.2031 Q225.5938,39.8281 224.9844,39.6094 Q224.375,39.3906 223.75,39.3906 Q222.9844,39.3906 222.3516,39.7188 Q221.7188,40.0469 221.2266,40.7969 Q220.7344,41.5469 220.7344,42.5781 L220.7344,43.6719 Q220.7344,44.9063 221.625,45.7266 Q222.5156,46.5469 224.1094,46.5469 Q225.0469,46.5469 225.7031,46.2969 Q226.0938,46.1406 226.5156,45.7031 Q226.7813,45.4375 226.9297,45.3594 Q227.0781,45.2813 227.2813,45.2813 Q227.6094,45.2813 227.8672,45.5391 Q228.125,45.7969 228.125,46.1406 Q228.125,46.4844 227.7813,46.8906 Q227.2813,47.4688 226.4844,47.7969 Q225.4063,48.25 224.1094,48.25 Q222.5938,48.25 221.3906,47.625 Q220.4063,47.125 219.7188,46.0547 Q219.0313,44.9844 219.0313,43.7031 L219.0313,42.5469 Q219.0313,41.2188 219.6484,40.0703 Q220.2656,38.9219 221.3594,38.3047 Q222.4531,37.6875 223.6875,37.6875 Q224.4219,37.6875 225.0703,37.8516 Q225.7188,38.0156 226.2656,38.375 Z "/><text fill="#000000" font-family="sans-serif" font-size="12" lengthAdjust="spacingAndGlyphs" textLength="68" x="237.5" y="47.4102">Presentador</text><line style="stroke: #A80036; stroke-width: 1.5;" x1="209.5" x2="307.5" y1="58.5" y2="58.5"/><line style="stroke: #A80036; stroke-width: 1.5;" x1="209.5" x2="307.5" y1="66.5" y2="66.5"/><!--class Modelo--><rect fill="#FEFECE" filter="url(#f6j8ha1669w96)" height="48" id="Modelo" style="stroke: #A80036; stroke-width: 1.5;" width="72" x="113.5" y="171"/><ellipse cx="128.5" cy="187" fill="#ADD1B2" rx="11" ry="11" style="stroke: #A80036; stroke-width: 1.0;"/><path d="M131.2656,182.875 Q131.4219,182.6563 131.6094,182.5469 Q131.7969,182.4375 132.0156,182.4375 Q132.3906,182.4375 132.625,182.6953 Q132.8594,182.9531 132.8594,183.5625 L132.8594,185.0156 Q132.8594,185.625 132.625,185.8906 Q132.3906,186.1563 132.0156,186.1563 Q131.6719,186.1563 131.4688,185.9531 Q131.2656,185.7656 131.1563,185.25 Q131.1094,184.8906 130.9219,184.7031 Q130.5938,184.3281 129.9844,184.1094 Q129.375,183.8906 128.75,183.8906 Q127.9844,183.8906 127.3516,184.2188 Q126.7188,184.5469 126.2266,185.2969 Q125.7344,186.0469 125.7344,187.0781 L125.7344,188.1719 Q125.7344,189.4063 126.625,190.2266 Q127.5156,191.0469 129.1094,191.0469 Q130.0469,191.0469 130.7031,190.7969 Q131.0938,190.6406 131.5156,190.2031 Q131.7813,189.9375 131.9297,189.8594 Q132.0781,189.7813 132.2813,189.7813 Q132.6094,189.7813 132.8672,190.0391 Q133.125,190.2969 133.125,190.6406 Q133.125,190.9844 132.7813,191.3906 Q132.2813,191.9688 131.4844,192.2969 Q130.4063,192.75 129.1094,192.75 Q127.5938,192.75 126.3906,192.125 Q125.4063,191.625 124.7188,190.5547 Q124.0313,189.4844 124.0313,188.2031 L124.0313,187.0469 Q124.0313,185.7188 124.6484,184.5703 Q125.2656,183.4219 126.3594,182.8047 Q127.4531,182.1875 128.6875,182.1875 Q129.4219,182.1875 130.0703,182.3516 Q130.7188,182.5156 131.2656,182.875 Z "/><text fill="#000000" font-family="sans-serif" font-size="12" lengthAdjust="spacingAndGlyphs" textLength="40" x="142.5" y="191.9102">Modelo</text><line style="stroke: #A80036; stroke-width: 1.5;" x1="114.5" x2="184.5" y1="203" y2="203"/><line style="stroke: #A80036; stroke-width: 1.5;" x1="114.5" x2="184.5" y1="211" y2="211"/><!--class Vista--><rect fill="#FEFECE" filter="url(#f6j8ha1669w96)" height="48" id="Vista" style="stroke: #A80036; stroke-width: 1.5;" width="59" x="74" y="26.5"/><ellipse cx="89" cy="42.5" fill="#ADD1B2" rx="11" ry="11" style="stroke: #A80036; stroke-width: 1.0;"/><path d="M91.7656,38.375 Q91.9219,38.1563 92.1094,38.0469 Q92.2969,37.9375 92.5156,37.9375 Q92.8906,37.9375 93.125,38.1953 Q93.3594,38.4531 93.3594,39.0625 L93.3594,40.5156 Q93.3594,41.125 93.125,41.3906 Q92.8906,41.6563 92.5156,41.6563 Q92.1719,41.6563 91.9688,41.4531 Q91.7656,41.2656 91.6563,40.75 Q91.6094,40.3906 91.4219,40.2031 Q91.0938,39.8281 90.4844,39.6094 Q89.875,39.3906 89.25,39.3906 Q88.4844,39.3906 87.8516,39.7188 Q87.2188,40.0469 86.7266,40.7969 Q86.2344,41.5469 86.2344,42.5781 L86.2344,43.6719 Q86.2344,44.9063 87.125,45.7266 Q88.0156,46.5469 89.6094,46.5469 Q90.5469,46.5469 91.2031,46.2969 Q91.5938,46.1406 92.0156,45.7031 Q92.2813,45.4375 92.4297,45.3594 Q92.5781,45.2813 92.7813,45.2813 Q93.1094,45.2813 93.3672,45.5391 Q93.625,45.7969 93.625,46.1406 Q93.625,46.4844 93.2813,46.8906 Q92.7813,47.4688 91.9844,47.7969 Q90.9063,48.25 89.6094,48.25 Q88.0938,48.25 86.8906,47.625 Q85.9063,47.125 85.2188,46.0547 Q84.5313,44.9844 84.5313,43.7031 L84.5313,42.5469 Q84.5313,41.2188 85.1484,40.0703 Q85.7656,38.9219 86.8594,38.3047 Q87.9531,37.6875 89.1875,37.6875 Q89.9219,37.6875 90.5703,37.8516 Q91.2188,38.0156 91.7656,38.375 Z "/><text fill="#000000" font-family="sans-serif" font-size="12" lengthAdjust="spacingAndGlyphs" textLength="27" x="103" y="47.4102">Vista</text><line style="stroke: #A80036; stroke-width: 1.5;" x1="75" x2="132" y1="58.5" y2="58.5"/><line style="stroke: #A80036; stroke-width: 1.5;" x1="75" x2="132" y1="66.5" y2="66.5"/><!--link Actor to Vista--><path d="M39.2695,50.5 C49.0978,50.5 58.926,50.5 68.7542,50.5 " fill="none" id="Actor-Vista" style="stroke: #A80036; stroke-width: 1.0;"/><polygon fill="#A80036" points="73.8938,50.5,64.8938,46.5,68.8938,50.5,64.8938,54.5,73.8938,50.5" style="stroke: #A80036; stroke-width: 1.0;"/><!--link Presentador to Vista--><path d="M208.343,69.202 C195.205,72.146 181.005,73.611 167.75,71.5 C157.881,69.928 147.469,67.078 137.966,63.975 " fill="none" id="Presentador-Vista" style="stroke: #A80036; stroke-width: 1.0;"/><polygon fill="#A80036" points="133.087,62.334,140.344,68.9925,137.8265,63.9267,142.8923,61.4092,133.087,62.334" style="stroke: #A80036; stroke-width: 1.0;"/><text fill="#000000" font-family="sans-serif" font-size="13" lengthAdjust="spacingAndGlyphs" textLength="0" x="172.75" y="67.9951"/><!--link Vista to Presentador--><path d="M133.019,50.5 C152.864,50.5 179.628,50.5 203.341,50.5 " fill="none" id="Vista-Presentador" style="stroke: #A80036; stroke-width: 1.0; stroke-dasharray: 7.0,7.0;"/><polygon fill="#A80036" points="208.352,50.5,199.352,46.5,203.352,50.5,199.352,54.5,208.352,50.5" style="stroke: #A80036; stroke-width: 1.0;"/><text fill="#000000" font-family="sans-serif" font-size="13" lengthAdjust="spacingAndGlyphs" textLength="39" x="151.25" y="43.9951">Evento</text><!--link Presentador to Modelo--><path d="M240.745,74.712 C221.505,99.865 190.829,139.9693 170.43,166.6374 " fill="none" id="Presentador-Modelo" style="stroke: #A80036; stroke-width: 1.0;"/><polygon fill="#A80036" points="167.248,170.7977,175.893,166.0793,170.2857,166.8263,169.5387,161.2189,167.248,170.7977" style="stroke: #A80036; stroke-width: 1.0;"/><!--link Modelo to Vista--><path d="M142.01,170.7977 C133.959,145.8555 121.159,106.204 112.55,79.534 " fill="none" id="Modelo-Vista" style="stroke: #A80036; stroke-width: 1.0; stroke-dasharray: 7.0,7.0;"/><polygon fill="#A80036" points="110.993,74.712,109.9505,84.5055,112.5286,79.4703,117.5638,82.0485,110.993,74.712" style="stroke: #A80036; stroke-width: 1.0;"/><text fill="#000000" font-family="sans-serif" font-size="13" lengthAdjust="spacingAndGlyphs" textLength="39" x="132.5" y="137.4951">Evento</text><!--link Vista to Modelo--><path d="M103.0622,74.634 C103.4188,93.131 105.5335,119.4416 113.5,141 C116.786,149.8915 121.873,158.7364 127.199,166.5804 " fill="none" id="Vista-Modelo" style="stroke: #A80036; stroke-width: 1.0;"/><polygon fill="#A80036" points="130.172,170.8291,128.2898,161.1618,127.3056,166.7323,121.735,165.7481,130.172,170.8291" style="stroke: #A80036; stroke-width: 1.0;"/><text fill="#000000" font-family="sans-serif" font-size="13" lengthAdjust="spacingAndGlyphs" textLength="0" x="118.5" y="137.4951"/><!--
@startuml
allow_mixing

actor Actor
class Presentador
class Modelo
class Vista

Actor -right-> Vista
Presentador -right-> Vista : " "
Vista ..> Presentador : Evento
Presentador -down-> Modelo
Modelo ..> Vista : Evento
Vista -down-> Modelo : " "
@enduml

PlantUML version 1.2019.05(Sat Apr 20 18:45:36 CEST 2019)
(GPL source distribution)
Java Runtime: OpenJDK Runtime Environment
JVM: OpenJDK 64-Bit Server VM
Java Version: 1.8.0_222-b10
Operating System: Windows 10
OS Version: 10.0
Default Encoding: windows-1252
Language: es
Country: ES
--></g></svg>