<?xml version="1.0" encoding="UTF-8" standalone="no"?><svg xmlns="http://www.w3.org/2000/svg" xmlns:xlink="http://www.w3.org/1999/xlink" contentScriptType="application/ecmascript" contentStyleType="text/css" height="103px" preserveAspectRatio="none" style="width:426px;height:103px;" version="1.1" viewBox="0 0 426 103" width="426px" zoomAndPan="magnify"><defs><filter height="300%" id="f1gsewmsbyvr41" width="300%" x="-1" y="-1"><feGaussianBlur result="blurOut" stdDeviation="2.0"/><feColorMatrix in="blurOut" result="blurOut2" type="matrix" values="0 0 0 0 0 0 0 0 0 0 0 0 0 0 0 0 0 0 .4 0"/><feOffset dx="4.0" dy="4.0" in="blurOut2" result="blurOut3"/><feBlend in="SourceGraphic" in2="blurOut3" mode="normal"/></filter></defs><g><!--entity Actor--><ellipse cx="22.5" cy="18" fill="#FEFECE" filter="url(#f1gsewmsbyvr41)" rx="8" ry="8" style="stroke: #A80036; stroke-width: 2.0;"/><path d="M22.5,26 L22.5,53 M9.5,34 L35.5,34 M22.5,53 L9.5,68 M22.5,53 L35.5,68 " fill="none" filter="url(#f1gsewmsbyvr41)" style="stroke: #A80036; stroke-width: 2.0;"/><text fill="#000000" font-family="sans-serif" font-size="14" lengthAdjust="spacingAndGlyphs" textLength="33" x="6" y="89.5332">Actor</text><!--class Presentador--><rect fill="#FEFECE" filter="url(#f1gsewmsbyvr41)" height="48" id="Presentador" style="stroke: #A80036; stroke-width: 1.5;" width="100" x="208.5" y="26.5"/><ellipse cx="223.5" cy="42.5" fill="#ADD1B2" rx="11" ry="11" style="stroke: #A80036; stroke-width: 1.0;"/><path d="M226.2656,38.375 Q226.4219,38.1563 226.6094,38.0469 Q226.7969,37.9375 227.0156,37.9375 Q227.3906,37.9375 227.625,38.1953 Q227.8594,38.4531 227.8594,39.0625 L227.8594,40.5156 Q227.8594,41.125 227.625,41.3906 Q227.3906,41.6563 227.0156,41.6563 Q226.6719,41.6563 226.4688,41.4531 Q226.2656,41.2656 226.1563,40.75 Q226.1094,40.3906 225.9219,40.2031 Q225.5938,39.8281 224.9844,39.6094 Q224.375,39.3906 223.75,39.3906 Q222.9844,39.3906 222.3516,39.7188 Q221.7188,40.0469 221.2266,40.7969 Q220.7344,41.5469 220.7344,42.5781 L220.7344,43.6719 Q220.7344,44.9063 221.625,45.7266 Q222.5156,46.5469 224.1094,46.5469 Q225.0469,46.5469 225.7031,46.2969 Q226.0938,46.1406 226.5156,45.7031 Q226.7813,45.4375 226.9297,45.3594 Q227.0781,45.2813 227.2813,45.2813 Q227.6094,45.2813 227.8672,45.5391 Q228.125,45.7969 228.125,46.1406 Q228.125,46.4844 227.7813,46.8906 Q227.2813,47.4688 226.4844,47.7969 Q225.4063,48.25 224.1094,48.25 Q222.5938,48.25 221.3906,47.625 Q220.4063,47.125 219.7188,46.0547 Q219.0313,44.9844 219.0313,43.7031 L219.0313,42.5469 Q219.0313,41.2188 219.6484,40.0703 Q220.2656,38.9219 221.3594,38.3047 Q222.4531,37.6875 223.6875,37.6875 Q224.4219,37.6875 225.0703,37.8516 Q225.7188,38.0156 226.2656,38.375 Z "/><text fill="#000000" font-family="sans-serif" font-size="12" lengthAdjust="spacingAndGlyphs" textLength="68" x="237.5" y="47.4102">Presentador</text><line style="stroke: #A80036; stroke-width: 1.5;" x1="209.5" x2="307.5" y1="58.5" y2="58.5"/><line style="stroke: #A80036; stroke-width: 1.5;" x1="209.5" x2="307.5" y1="66.5" y2="66.5"/><!--class Modelo--><rect fill="#FEFECE" filter="url(#f1gsewmsbyvr41)" height="48" id="Modelo" style="stroke: #A80036; stroke-width: 1.5;" width="72" x="343.5" y="26.5"/><ellipse cx="358.5" cy="42.5" fill="#ADD1B2" rx="11" ry="11" style="stroke: #A80036; stroke-width: 1.0;"/><path d="M361.2656,38.375 Q361.4219,38.1563 361.6094,38.0469 Q361.7969,37.9375 362.0156,37.9375 Q362.3906,37.9375 362.625,38.1953 Q362.8594,38.4531 362.8594,39.0625 L362.8594,40.5156 Q362.8594,41.125 362.625,41.3906 Q362.3906,41.6563 362.0156,41.6563 Q361.6719,41.6563 361.4688,41.4531 Q361.2656,41.2656 361.1563,40.75 Q361.1094,40.3906 360.9219,40.2031 Q360.5938,39.8281 359.9844,39.6094 Q359.375,39.3906 358.75,39.3906 Q357.9844,39.3906 357.3516,39.7188 Q356.7188,40.0469 356.2266,40.7969 Q355.7344,41.5469 355.7344,42.5781 L355.7344,43.6719 Q355.7344,44.9063 356.625,45.7266 Q357.5156,46.5469 359.1094,46.5469 Q360.0469,46.5469 360.7031,46.2969 Q361.0938,46.1406 361.5156,45.7031 Q361.7813,45.4375 361.9297,45.3594 Q362.0781,45.2813 362.2813,45.2813 Q362.6094,45.2813 362.8672,45.5391 Q363.125,45.7969 363.125,46.1406 Q363.125,46.4844 362.7813,46.8906 Q362.2813,47.4688 361.4844,47.7969 Q360.4063,48.25 359.1094,48.25 Q357.5938,48.25 356.3906,47.625 Q355.4063,47.125 354.7188,46.0547 Q354.0313,44.9844 354.0313,43.7031 L354.0313,42.5469 Q354.0313,41.2188 354.6484,40.0703 Q355.2656,38.9219 356.3594,38.3047 Q357.4531,37.6875 358.6875,37.6875 Q359.4219,37.6875 360.0703,37.8516 Q360.7188,38.0156 361.2656,38.375 Z "/><text fill="#000000" font-family="sans-serif" font-size="12" lengthAdjust="spacingAndGlyphs" textLength="40" x="372.5" y="47.4102">Modelo</text><line style="stroke: #A80036; stroke-width: 1.5;" x1="344.5" x2="414.5" y1="58.5" y2="58.5"/><line style="stroke: #A80036; stroke-width: 1.5;" x1="344.5" x2="414.5" y1="66.5" y2="66.5"/><!--class Vista--><rect fill="#FEFECE" filter="url(#f1gsewmsbyvr41)" height="48" id="Vista" style="stroke: #A80036; stroke-width: 1.5;" width="59" x="74" y="26.5"/><ellipse cx="89" cy="42.5" fill="#ADD1B2" rx="11" ry="11" style="stroke: #A80036; stroke-width: 1.0;"/><path d="M91.7656,38.375 Q91.9219,38.1563 92.1094,38.0469 Q92.2969,37.9375 92.5156,37.9375 Q92.8906,37.9375 93.125,38.1953 Q93.3594,38.4531 93.3594,39.0625 L93.3594,40.5156 Q93.3594,41.125 93.125,41.3906 Q92.8906,41.6563 92.5156,41.6563 Q92.1719,41.6563 91.9688,41.4531 Q91.7656,41.2656 91.6563,40.75 Q91.6094,40.3906 91.4219,40.2031 Q91.0938,39.8281 90.4844,39.6094 Q89.875,39.3906 89.25,39.3906 Q88.4844,39.3906 87.8516,39.7188 Q87.2188,40.0469 86.7266,40.7969 Q86.2344,41.5469 86.2344,42.5781 L86.2344,43.6719 Q86.2344,44.9063 87.125,45.7266 Q88.0156,46.5469 89.6094,46.5469 Q90.5469,46.5469 91.2031,46.2969 Q91.5938,46.1406 92.0156,45.7031 Q92.2813,45.4375 92.4297,45.3594 Q92.5781,45.2813 92.7813,45.2813 Q93.1094,45.2813 93.3672,45.5391 Q93.625,45.7969 93.625,46.1406 Q93.625,46.4844 93.2813,46.8906 Q92.7813,47.4688 91.9844,47.7969 Q90.9063,48.25 89.6094,48.25 Q88.0938,48.25 86.8906,47.625 Q85.9063,47.125 85.2188,46.0547 Q84.5313,44.9844 84.5313,43.7031 L84.5313,42.5469 Q84.5313,41.2188 85.1484,40.0703 Q85.7656,38.9219 86.8594,38.3047 Q87.9531,37.6875 89.1875,37.6875 Q89.9219,37.6875 90.5703,37.8516 Q91.2188,38.0156 91.7656,38.375 Z "/><text fill="#000000" font-family="sans-serif" font-size="12" lengthAdjust="spacingAndGlyphs" textLength="27" x="103" y="47.4102">Vista</text><line style="stroke: #A80036; stroke-width: 1.5;" x1="75" x2="132" y1="58.5" y2="58.5"/><line style="stroke: #A80036; stroke-width: 1.5;" x1="75" x2="132" y1="66.5" y2="66.5"/><!--link Actor to Vista--><path d="M39.2695,50.5 C49.0978,50.5 58.926,50.5 68.7542,50.5 " fill="none" id="Actor-Vista" style="stroke: #A80036; stroke-width: 1.0;"/><polygon fill="#A80036" points="73.8938,50.5,64.8938,46.5,68.8938,50.5,64.8938,54.5,73.8938,50.5" style="stroke: #A80036; stroke-width: 1.0;"/><!--link Presentador to Vista--><path d="M208.343,69.2015 C195.205,72.1461 181.005,73.6113 167.75,71.5 C157.881,69.9281 147.469,67.0783 137.966,63.9747 " fill="none" id="Presentador-Vista" style="stroke: #A80036; stroke-width: 1.0;"/><polygon fill="#A80036" points="133.087,62.334,140.3437,68.9929,137.8265,63.927,142.8924,61.4098,133.087,62.334" style="stroke: #A80036; stroke-width: 1.0;"/><text fill="#000000" font-family="sans-serif" font-size="13" lengthAdjust="spacingAndGlyphs" textLength="0" x="172.75" y="67.9951"/><!--link Vista to Presentador--><path d="M133.019,50.5 C152.864,50.5 179.628,50.5 203.341,50.5 " fill="none" id="Vista-Presentador" style="stroke: #A80036; stroke-width: 1.0; stroke-dasharray: 7.0,7.0;"/><polygon fill="#A80036" points="208.352,50.5,199.352,46.5,203.352,50.5,199.352,54.5,208.352,50.5" style="stroke: #A80036; stroke-width: 1.0;"/><text fill="#000000" font-family="sans-serif" font-size="13" lengthAdjust="spacingAndGlyphs" textLength="39" x="151.25" y="43.9951">Evento</text><!--link Presentador to Modelo--><path d="M308.602,50.5 C318.507,50.5 328.412,50.5 338.317,50.5 " fill="none" id="Presentador-Modelo" style="stroke: #A80036; stroke-width: 1.0;"/><polygon fill="#A80036" points="343.497,50.5,334.497,46.5,338.497,50.5,334.497,54.5,343.497,50.5" style="stroke: #A80036; stroke-width: 1.0;"/><!--
@startuml
allow_mixing

actor Actor
class Presentador
class Modelo
class Vista

Actor -right-> Vista
Presentador -right-> Vista : " "
Vista ..> Presentador : Evento
Presentador -right-> Modelo
@enduml

PlantUML version 1.2019.05(Sat Apr 20 18:45:36 CEST 2019)
(GPL source distribution)
Java Runtime: OpenJDK Runtime Environment
JVM: OpenJDK 64-Bit Server VM
Java Version: 1.8.0_222-b10
Operating System: Windows 10
OS Version: 10.0
Default Encoding: windows-1252
Language: es
Country: ES
--></g></svg>